{"title":"Sonali Cable 2014 Hindi HD DVDSCR Rip GOPI SAHI PDR","uid":11236383,"size":725332208,"categoryP":"video","categoryS":"movies","magnet":"?xt=urn:btih:cb413e2cd82f4c74fcb64028b66d879c86d9253c&amp;dn=Sonali+Cable+2014+Hindi+HD+DVDSCR+Rip+GOPI+SAHI+PDR&amp;tr=udp%3A%2F%2Ftracker.openbittorrent.com%3A80&amp;tr=udp%3A%2F%2Fopen.demonii.com%3A1337&amp;tr=udp%3A%2F%2Ftracker.coppersurfer.tk%3A6969&amp;tr=udp%3A%2F%2Fexodus.desync.com%3A6969","seeders":1,"leechers":0,"uploader":"jatt13","files":1,"time":1413599832,"description":"eneral\nUnique ID                      : 173056847155413322178290947827902842797 (0x82318951A09E7A0CA3191595681A07AD)\nComplete name                  : D:FILMSonali Cable 2014 Hindi HD DVDSCR Rip GOPI SAHI PDR.mkv\nFormat                         : Matroska\nFormat version                 : Version 4 / Version 2\nFile size                      : 692 MiB\nDuration                       : 2h 4mn\nOverall bit rate               : 779 Kbps\nMovie name                     : GOPI SAHI\nEncoded date                   : UTC 2014-10-18 13:56:47\nWriting application            : mkvmerge v6.5.0 ('Isn't she lovely') built on Oct 20 2013 12:50:05\nWriting library                : libebml v1.3.0 + libmatroska v1.4.1\n\nVideo\nID                             : 1\nFormat                         : MPEG-4 Visual\nFormat profile                 : Advanced Simple@L5\nFormat settings, BVOP          : Yes\nFormat settings, QPel          : No\nFormat settings, GMC           : No warppoints\nFormat settings, Matrix        : Default (H.263)\nCodec ID                       : V_MS/VFW/FOURCC / XVID\nCodec ID/Hint                  : XviD\nDuration                       : 2h 4mn\nBit rate                       : 668 Kbps\nWidth                          : 640 pixels\nHeight                         : 272 pixels\nDisplay aspect ratio           : 2.35:1\nFrame rate mode                : Constant\nFrame rate                     : 25.000 fps\nColor space                    : YUV\nChroma subsampling             : 4:2:0\nBit depth                      : 8 bits\nScan type                      : Progressive\nCompression mode               : Lossy\nBits/(Pixel*Frame)             : 0.153\nStream size                    : 593 MiB (86%)\nTitle                          : GOPI SAHI\nWriting library                : XviD 1.2.1 (UTC 2008-12-04)\nLanguage                       : Hindi\nDefault                        : Yes\nForced                         : No\n\nAudio\nID                             : 2\nFormat                         : MPEG Audio\nFormat version                 : Version 1\nFormat profile                 : Layer 3\nMode                           : Joint stereo\nMode extension                 : MS Stereo\nCodec ID                       : A_MPEG/L3\nCodec ID/Hint                  : MP3\nDuration                       : 2h 4mn\nBit rate mode                  : Constant\nBit rate                       : 96.0 Kbps\nChannel(s)                     : 2 channels\nSampling rate                  : 32.0 KHz\nCompression mode               : Lossy\nStream size                    : 85.2 MiB (12%)\nTitle                          : GOPI SAHI\nWriting library                : LAME3.99r\nEncoding settings              : -m j -V 4 -q 2 -lowpass 15.1 -b 96\nLanguage                       : Hindi\nDefault                        : Yes\nForced                         : No\n[IMG]http://imgchicken.com/images/91382131127546581216.jpg[/IMG]\n[IMG]http://imgchicken.com/images/68346819033704457387.jpg[/IMG]\n[IMG]http://imgchicken.com/images/67112161066751071175.jpg[/IMG]\n[IMG]http://imgchicken.com/images/65436202378556929678.jpg[/IMG]\n[IMG]http://imgchicken.com/images/64636853757468731022.jpg[/IMG]\n[IMG]http://imgchicken.com/images/51501058495789382164.jpg[/IMG]\n[IMG]http://imgchicken.com/images/91382131127546581216.jpg[/IMG]","torrent":{"xt":"urn:btih:cb413e2cd82f4c74fcb64028b66d879c86d9253c","amp;dn":"Sonali+Cable+2014+Hindi+HD+DVDSCR+Rip+GOPI+SAHI+PDR","amp;tr":["udp%3A%2F%2Ftracker.openbittorrent.com%3A80","udp%3A%2F%2Fopen.demonii.com%3A1337","udp%3A%2F%2Ftracker.coppersurfer.tk%3A6969","udp%3A%2F%2Fexodus.desync.com%3A6969"],"infoHash":"cb413e2cd82f4c74fcb64028b66d879c86d9253c","infoHashBuffer":{"type":"Buffer","data":[203,65,62,44,216,47,76,116,252,182,64,40,182,109,135,156,134,217,37,60]},"announce":[],"urlList":[]}}